{"title":"The Blacklist S01E17 HDTV x264 AAC E-Subs [GWC].mp4","uid":9823630,"size":133031896,"categoryP":"video","categoryS":"tv_shows","magnet":"?xt=urn:btih:353fd39867120c675821961a55c806c595c84e0b&amp;dn=The+Blacklist+S01E17+HDTV+x264+AAC+E-Subs+%5BGWC%5D.mp4&amp;tr=udp%3A%2F%2Ftracker.openbittorrent.com%3A80&amp;tr=udp%3A%2F%2Fopen.demonii.com%3A1337&amp;tr=udp%3A%2F%2Ftracker.coppersurfer.tk%3A6969&amp;tr=udp%3A%2F%2Fexodus.desync.com%3A6969","seeders":5,"leechers":0,"uploader":"canc232","files":1,"time":1395735367,"description":"The Blacklist S01E17 HDTV x264 AAC E-Subs [GWC]\n\nSTORYLINE :\nFormer government agent Raymond &quot;Red&quot; Reddington has eluded capture for decades. But he suddenly surrenders to the FBI with an offer to help catch a terrorist under the condition that he speaks only to Elizabeth &quot;Liz&quot; Keen, a young FBI profiler who's just barely out of Quantico\n\n\nSCREENS : &lt;a href=&quot;\nhttp://i.imgur.com/ZKtG6wM.jpg&quot; rel=&quot;nofollow&quot; target=&quot;_NEW&quot;&gt;\nhttp://i.imgur.com/ZKtG6wM.jpg&lt;/a&gt; &lt;a href=&quot;\nhttp://i.imgur.com/OrU6hmr.jpg&quot; rel=&quot;nofollow&quot; target=&quot;_NEW&quot;&gt;\nhttp://i.imgur.com/OrU6hmr.jpg&lt;/a&gt; &lt;a href=&quot;\nhttp://i.imgur.com/xOheEg1.jpg&quot; rel=&quot;nofollow&quot; target=&quot;_NEW&quot;&gt;\nhttp://i.imgur.com/xOheEg1.jpg&lt;/a&gt;\n\n\nMEDIA INFO :\nGeneral  \nFormat : MPEG-4 \nFormat profile : Base Media \nFile size : 127 MiB \nDuration : 42mn 35s \nOverall bit rate : 416 Kbps \n\nVideo \nFormat : AVC \nFormat profile : &lt;a class=&quot;__cf_email__&quot; href=&quot;/cdn-cgi/l/email-protection&quot; data-cfemail=&quot;6129080609212d524f51&quot;&gt;[email&amp;#160;protected]&lt;/a&gt;&lt;script cf-hash='f9e31' type=&quot;text/javascript&quot;&gt;\n/* &lt;![CDATA[ */!function(){try{var t=&quot;currentScript&quot;in document?document.currentScript:function(){for(var t=document.getElementsByTagName(&quot;script&quot;),e=t.length;e--;)if(t[e].getAttribute(&quot;cf-hash&quot;))return t[e]}();if(t&amp;&amp;t.previousSibling){var e,r,n,i,c=t.previousSibling,a=c.getAttribute(&quot;data-cfemail&quot;);if(a){for(e=&quot;&quot;,r=parseInt(a.substr(0,2),16),n=2;a.length-n;n+=2)i=parseInt(a.substr(n,2),16)^r,e+=String.fromCharCode(i);e=document.createTextNode(e),c.parentNode.replaceChild(e,c)}}}catch(u){}}();/* ]]&gt; */&lt;/script&gt; \nFormat settings, CABAC : Yes \nFormat settings, ReFrames : 4 frames \nDuration : 42mn 35s \nBit rate : 353 Kbps \nMaximum bit rate : 2 833 Kbps \nWidth : 720 pixels \nHeight : 404 pixels \nDisplay aspect ratio : 16:9 \nFrame rate : 23.976 fps \nStream size : 108 MiB (85%) \nTitle : The Blacklist S01E17 HDTV x264 AAC E-Subs [GWC] \nWriting library : x264 core \n\nAudio \nFormat : AAC \nFormat profile : HE-AAC / LC \nDuration : 42mn 35s \nBit rate mode : Variable \nChannel(s) : 2 channels \nSampling rate : 48.0 KHz / 24.0 KHz \nStream size : 18.3 MiB (14%) \nTitle : The Blacklist S01E17 HDTV x264 AAC E-Subs [GWC] \nLanguage : English \n\nText \nFormat : Timed Text \nTitle : English Subtitle by n17t01 \nLanguage : English \n\n","torrent":{"xt":"urn:btih:353fd39867120c675821961a55c806c595c84e0b","amp;dn":"The+Blacklist+S01E17+HDTV+x264+AAC+E-Subs+%5BGWC%5D.mp4","amp;tr":["udp%3A%2F%2Ftracker.openbittorrent.com%3A80","udp%3A%2F%2Fopen.demonii.com%3A1337","udp%3A%2F%2Ftracker.coppersurfer.tk%3A6969","udp%3A%2F%2Fexodus.desync.com%3A6969"],"infoHash":"353fd39867120c675821961a55c806c595c84e0b","infoHashBuffer":{"type":"Buffer","data":[53,63,211,152,103,18,12,103,88,33,150,26,85,200,6,197,149,200,78,11]},"announce":[],"urlList":[]}}